<svg width="22" height="22" viewBox="0 0 22 22" fill="none" xmlns="http://www.w3.org/2000/svg">
<path d="M13.0625 7.5625C13.6064 7.5625 14.1381 7.40122 14.5903 7.09904C15.0426 6.79687 15.395 6.36738 15.6032 5.86488C15.8113 5.36238 15.8658 4.80945 15.7597 4.276C15.6536 3.74256 15.3917 3.25255 15.0071 2.86796C14.6225 2.48336 14.1325 2.22145 13.599 2.11534C13.0656 2.00923 12.5126 2.06369 12.0101 2.27183C11.5076 2.47997 11.0781 2.83245 10.776 3.28468C10.4738 3.73692 10.3125 4.2686 10.3125 4.8125C10.3125 5.54185 10.6022 6.24132 11.118 6.75705C11.6337 7.27277 12.3332 7.5625 13.0625 7.5625ZM13.0625 3.4375C13.3345 3.4375 13.6003 3.51814 13.8264 3.66923C14.0525 3.82032 14.2288 4.03506 14.3328 4.28631C14.4369 4.53756 14.4641 4.81403 14.4111 5.08075C14.358 5.34747 14.2271 5.59248 14.0348 5.78477C13.8425 5.97707 13.5975 6.10803 13.3308 6.16108C13.064 6.21414 12.7876 6.18691 12.5363 6.08284C12.2851 5.97877 12.0703 5.80253 11.9192 5.57641C11.7682 5.35029 11.6875 5.08445 11.6875 4.8125C11.6875 4.44783 11.8324 4.09809 12.0902 3.84023C12.3481 3.58237 12.6978 3.4375 13.0625 3.4375ZM18.847 12.0897C18.7945 12.1138 18.2033 12.3716 17.1566 12.3716C15.9663 12.3716 14.1874 12.0381 11.941 10.6528C11.5991 11.6234 11.1552 12.5551 10.6167 13.432C11.5839 13.7298 12.4937 14.1892 13.3074 14.7907C14.9463 16.0402 15.8125 17.8191 15.8125 19.9375C15.8125 20.1198 15.7401 20.2947 15.6112 20.4236C15.4822 20.5526 15.3074 20.625 15.125 20.625C14.9427 20.625 14.7678 20.5526 14.6389 20.4236C14.5099 20.2947 14.4375 20.1198 14.4375 19.9375C14.4375 16.3539 11.4563 15.064 9.78486 14.6223C9.73759 14.6824 9.68861 14.7434 9.63962 14.8027C7.95181 16.848 5.83689 17.912 3.48392 17.912C3.21591 17.9132 2.94802 17.9009 2.68126 17.875C2.49893 17.8568 2.3313 17.7668 2.21526 17.625C2.09923 17.4832 2.04428 17.3011 2.06251 17.1188C2.08075 16.9364 2.17067 16.7688 2.31249 16.6528C2.45432 16.5367 2.63643 16.4818 2.81876 16.5C5.04626 16.7217 6.98415 15.8563 8.57658 13.9219C9.64994 12.6208 10.3813 11.0335 10.7465 9.88281C7.40181 7.93633 5.2654 9.5932 5.2422 9.61125C5.17217 9.67105 5.09084 9.71617 5.00303 9.74394C4.91522 9.7717 4.82273 9.78154 4.73105 9.77287C4.63937 9.76421 4.55036 9.73721 4.46932 9.69348C4.38827 9.64975 4.31683 9.59019 4.25925 9.51832C4.20166 9.44646 4.1591 9.36375 4.1341 9.27512C4.10909 9.18649 4.10214 9.09374 4.11367 9.00238C4.12519 8.91101 4.15496 8.82289 4.20119 8.74325C4.24743 8.66361 4.3092 8.59406 4.38283 8.53875C4.51173 8.43563 7.58142 6.04656 12.0751 9.10336C15.9827 11.7597 18.2566 10.8488 18.2781 10.8384C18.3604 10.7995 18.4497 10.7774 18.5407 10.7733C18.6317 10.7692 18.7226 10.7832 18.8081 10.8146C18.8937 10.8459 18.9721 10.8939 19.0389 10.9558C19.1057 11.0177 19.1596 11.0923 19.1973 11.1752C19.2351 11.2581 19.256 11.3477 19.2588 11.4387C19.2616 11.5298 19.2464 11.6205 19.2138 11.7055C19.1813 11.7906 19.1322 11.8684 19.0694 11.9343C19.0066 12.0003 18.9312 12.0531 18.8478 12.0897H18.847Z" fill="#2563EB"/>
</svg>
