<svg width="31" height="32" viewBox="0 0 31 32" fill="none" xmlns="http://www.w3.org/2000/svg">
<path d="M20.707 6.29624C19.237 4.54363 17.5828 2.96518 15.7749 1.58999C15.6936 1.53137 15.5968 1.49994 15.4976 1.49994C15.3984 1.49994 15.3016 1.53137 15.2203 1.58999C13.414 2.96547 11.7614 4.54391 10.293 6.29624C7.04402 10.1512 5.32812 14.1975 5.32812 18C5.32813 20.7848 6.3998 23.4555 8.3074 25.4246C10.215 27.3937 12.8023 28.5 15.5 28.5C18.1977 28.5 20.785 27.3937 22.6926 25.4246C24.6002 23.4555 25.6719 20.7848 25.6719 18C25.6719 14.1975 23.956 10.1512 20.707 6.29624ZM15.5 27.5C13.06 27.4973 10.7206 26.4956 8.99524 24.7146C7.26987 22.9336 6.29944 20.5187 6.29688 18C6.29688 13.5125 8.85801 9.52499 11.0074 6.97124C12.3603 5.37102 13.8654 3.91498 15.5 2.62499C17.1348 3.91655 18.6399 5.37428 19.9926 6.97624C22.142 9.52499 24.7031 13.5125 24.7031 18C24.7006 20.5187 23.7301 22.9336 22.0048 24.7146C20.2794 26.4956 17.94 27.4973 15.5 27.5Z" fill="#2563EB"/>
</svg>
