<svg width="32" height="32" viewBox="0 0 32 32" fill="none" xmlns="http://www.w3.org/2000/svg">
<path d="M21.375 6.29625C19.8576 4.54364 18.15 2.96519 16.2838 1.59C16.1998 1.53138 16.0999 1.49995 15.9975 1.49995C15.8951 1.49995 15.7952 1.53138 15.7113 1.59C13.8467 2.96549 12.1408 4.54392 10.625 6.29625C7.27125 10.1512 5.5 14.1975 5.5 18C5.5 20.7848 6.60625 23.4555 8.57538 25.4246C10.5445 27.3938 13.2152 28.5 16 28.5C18.7848 28.5 21.4555 27.3938 23.4246 25.4246C25.3938 23.4555 26.5 20.7848 26.5 18C26.5 14.1975 24.7288 10.1512 21.375 6.29625ZM25.5 18C25.4984 18.5025 25.4566 19.0041 25.375 19.5H16.5V16.5H25.4013C25.4664 16.9974 25.4993 17.4984 25.5 18ZM23.7675 11.5H16.5V8.5H21.875C22.5853 9.44761 23.2182 10.4508 23.7675 11.5ZM16.5 20.5H25.1637C24.8695 21.5763 24.3871 22.5919 23.7388 23.5H16.5V20.5ZM16.5 15.5V12.5H24.25C24.6829 13.4626 25.0131 14.4681 25.235 15.5H16.5ZM20.6375 6.97125C20.785 7.13792 20.9346 7.31417 21.0863 7.5H16.5V3.00875C17.9947 4.20345 19.3794 5.52957 20.6375 6.97125ZM6.5 18C6.5 13.5125 9.14375 9.525 11.3625 6.97125C12.6206 5.52957 14.0053 4.20345 15.5 3.00875V27.4862C13.0714 27.3555 10.7852 26.2994 9.11126 24.5351C7.43732 22.7707 6.50288 20.4321 6.5 18ZM16.5 27.4862V24.5H22.9188C21.2455 26.2875 18.9451 27.3577 16.5 27.4862Z" fill="#2563EB"/>
</svg>
