<svg width="32" height="32" viewBox="0 0 32 32" fill="none" xmlns="http://www.w3.org/2000/svg">
<path d="M16 8.5C16.6922 8.5 17.3689 8.29473 17.9445 7.91015C18.5201 7.52556 18.9687 6.97894 19.2336 6.33939C19.4985 5.69985 19.5678 4.99612 19.4327 4.31719C19.2977 3.63825 18.9643 3.01461 18.4749 2.52513C17.9854 2.03564 17.3617 1.7023 16.6828 1.56725C16.0039 1.4322 15.3001 1.50152 14.6606 1.76642C14.021 2.03133 13.4744 2.47993 13.0898 3.05551C12.7053 3.63108 12.5 4.30777 12.5 5C12.5 5.92826 12.8687 6.8185 13.5251 7.47487C14.1815 8.13125 15.0717 8.5 16 8.5ZM16 2.5C16.4944 2.5 16.9778 2.64662 17.3889 2.92133C17.8 3.19603 18.1205 3.58648 18.3097 4.04329C18.4989 4.50011 18.5484 5.00277 18.4519 5.48773C18.3555 5.97268 18.1174 6.41814 17.7677 6.76777C17.4181 7.1174 16.9727 7.3555 16.4877 7.45196C16.0028 7.54843 15.5001 7.49892 15.0433 7.3097C14.5865 7.12048 14.196 6.80005 13.9213 6.38893C13.6466 5.9778 13.5 5.49445 13.5 5C13.5 4.33696 13.7634 3.70108 14.2322 3.23223C14.7011 2.76339 15.3369 2.5 16 2.5ZM26.9275 17.0975L21.2712 10.685C20.9428 10.3126 20.5389 10.0143 20.0863 9.80998C19.6337 9.60567 19.1428 9.50001 18.6462 9.5H13.3537C12.8572 9.50001 12.3663 9.60567 11.9137 9.80998C11.4611 10.0143 11.0572 10.3126 10.7287 10.685L5.07248 17.0975C4.7052 17.4733 4.50057 17.9785 4.50283 18.504C4.50508 19.0295 4.71404 19.5329 5.08454 19.9056C5.45503 20.2782 5.95729 20.49 6.48273 20.4953C7.00817 20.5006 7.51458 20.2989 7.89248 19.9338L11.125 17.3375L8.66248 26.6975C8.44824 27.1785 8.4323 27.7245 8.61811 28.2171C8.80392 28.7098 9.1765 29.1093 9.655 29.3289C10.1335 29.5486 10.6793 29.5707 11.174 29.3905C11.6687 29.2103 12.0724 28.8422 12.2975 28.3663L16 22L19.6975 28.375C19.9226 28.851 20.3262 29.219 20.8209 29.3992C21.3157 29.5795 21.8615 29.5573 22.34 29.3377C22.8185 29.118 23.191 28.7185 23.3769 28.2259C23.5627 27.7332 23.5467 27.1872 23.3325 26.7063L20.875 17.3375L24.1125 19.9338C24.4904 20.2989 24.9968 20.5006 25.5222 20.4953C26.0477 20.49 26.5499 20.2782 26.9204 19.9056C27.2909 19.5329 27.4999 19.0295 27.5021 18.504C27.5044 17.9785 27.2998 17.4733 26.9325 17.0975H26.9275ZM26.2075 19.2063C26.02 19.3936 25.7657 19.4989 25.5006 19.4989C25.2355 19.4989 24.9813 19.3936 24.7937 19.2063C24.7809 19.1932 24.7671 19.1811 24.7525 19.17L20.3137 15.61C20.2318 15.5439 20.131 15.5053 20.0259 15.4999C19.9207 15.4944 19.8165 15.5222 19.7281 15.5794C19.6397 15.6367 19.5716 15.7203 19.5336 15.8185C19.4955 15.9167 19.4895 16.0244 19.5162 16.1263L22.375 26.9925C22.3825 27.0212 22.3926 27.0493 22.405 27.0763C22.4627 27.1956 22.4961 27.3251 22.5033 27.4575C22.5105 27.5898 22.4913 27.7222 22.4469 27.8471C22.4024 27.9719 22.3336 28.0867 22.2444 28.1847C22.1552 28.2827 22.0474 28.3621 21.9273 28.4181C21.8072 28.4741 21.6772 28.5056 21.5447 28.5109C21.4123 28.5162 21.2802 28.4951 21.156 28.4489C21.0318 28.4027 20.918 28.3322 20.8213 28.2416C20.7245 28.1511 20.6468 28.0422 20.5925 27.9213C20.5862 27.9075 20.5787 27.895 20.5712 27.8813L16.4325 20.75C16.3885 20.6742 16.3254 20.6113 16.2495 20.5676C16.1736 20.5239 16.0876 20.5009 16 20.5009C15.9124 20.5009 15.8263 20.5239 15.7504 20.5676C15.6745 20.6113 15.6114 20.6742 15.5675 20.75L11.4275 27.8813C11.42 27.895 11.4125 27.9075 11.4062 27.9213C11.352 28.0422 11.2742 28.1511 11.1775 28.2416C11.0807 28.3322 10.967 28.4027 10.8427 28.4489C10.7185 28.4951 10.5864 28.5162 10.454 28.5109C10.3216 28.5056 10.1915 28.4741 10.0714 28.4181C9.95128 28.3621 9.8435 28.2827 9.7543 28.1847C9.66511 28.0867 9.5963 27.9719 9.55185 27.8471C9.50741 27.7222 9.48822 27.5898 9.49541 27.4575C9.5026 27.3251 9.53602 27.1956 9.59373 27.0763C9.60613 27.0493 9.61617 27.0212 9.62373 26.9925L12.4837 16.125C12.5105 16.0232 12.5044 15.9155 12.4664 15.8173C12.4283 15.7191 12.3603 15.6354 12.2719 15.5782C12.1835 15.521 12.0793 15.4931 11.9741 15.4986C11.8689 15.5041 11.7682 15.5426 11.6862 15.6088L7.24998 19.17C7.2354 19.1811 7.22161 19.1932 7.20873 19.2063C7.01967 19.3859 6.76792 19.4845 6.50716 19.4812C6.2464 19.4779 5.99726 19.3728 5.81285 19.1884C5.62845 19.004 5.52338 18.7548 5.52004 18.4941C5.5167 18.2333 5.61536 17.9816 5.79498 17.7925L5.81623 17.77L11.4787 11.3463C11.7134 11.0803 12.0019 10.8672 12.3252 10.7213C12.6484 10.5754 12.9991 10.5 13.3537 10.5H18.6462C19.0009 10.5 19.3515 10.5754 19.6748 10.7213C19.9981 10.8672 20.2866 11.0803 20.5212 11.3463L26.1862 17.77L26.2075 17.7925C26.3949 17.98 26.5001 18.2343 26.5001 18.4994C26.5001 18.7645 26.3949 19.0187 26.2075 19.2063Z" fill="#2563EB"/>
</svg>
