<svg width="32" height="32" viewBox="0 0 32 32" fill="none" xmlns="http://www.w3.org/2000/svg">
<path d="M29.5 10C29.5 8.80653 29.0259 7.66193 28.182 6.81802C27.338 5.97411 26.1935 5.5 25 5.5H5.99998C4.93852 5.50009 3.91126 5.8754 3.09974 6.55961C2.28822 7.24381 1.74468 8.19286 1.56518 9.23903C1.38569 10.2852 1.58178 11.3612 2.11882 12.2767C2.65585 13.1923 3.49926 13.8886 4.49998 14.2425V25C4.49998 25.3978 4.65801 25.7794 4.93932 26.0607C5.22062 26.342 5.60215 26.5 5.99998 26.5H25C25.3978 26.5 25.7793 26.342 26.0606 26.0607C26.3419 25.7794 26.5 25.3978 26.5 25V14.2425C27.3766 13.9312 28.1355 13.3564 28.6726 12.5969C29.2097 11.8373 29.4987 10.9302 29.5 10ZM5.49998 25V14.4712C5.66596 14.4903 5.8329 14.4999 5.99998 14.5C6.13259 14.5 6.25976 14.4473 6.35353 14.3536C6.4473 14.2598 6.49998 14.1326 6.49998 14C6.49998 13.8674 6.4473 13.7402 6.35353 13.6464C6.25976 13.5527 6.13259 13.5 5.99998 13.5C5.07172 13.5 4.18148 13.1313 3.5251 12.4749C2.86873 11.8185 2.49998 10.9283 2.49998 10C2.49998 9.07174 2.86873 8.1815 3.5251 7.52513C4.18148 6.86875 5.07172 6.5 5.99998 6.5H18C18.9282 6.5 19.8185 6.86875 20.4749 7.52513C21.1312 8.1815 21.5 9.07174 21.5 10C21.5 10.9283 21.1312 11.8185 20.4749 12.4749C19.8185 13.1313 18.9282 13.5 18 13.5C17.8674 13.5 17.7402 13.5527 17.6464 13.6464C17.5527 13.7402 17.5 13.8674 17.5 14C17.5 14.1326 17.5527 14.2598 17.6464 14.3536C17.7402 14.4473 17.8674 14.5 18 14.5C18.1671 14.4999 18.334 14.4903 18.5 14.4712V25C18.5 25.1326 18.4473 25.2598 18.3535 25.3536C18.2598 25.4473 18.1326 25.5 18 25.5H5.99998C5.86737 25.5 5.74019 25.4473 5.64642 25.3536C5.55266 25.2598 5.49998 25.1326 5.49998 25ZM25 13.5C24.8674 13.5 24.7402 13.5527 24.6464 13.6464C24.5527 13.7402 24.5 13.8674 24.5 14C24.5 14.1326 24.5527 14.2598 24.6464 14.3536C24.7402 14.4473 24.8674 14.5 25 14.5C25.1671 14.4999 25.334 14.4903 25.5 14.4712V25C25.5 25.1326 25.4473 25.2598 25.3535 25.3536C25.2598 25.4473 25.1326 25.5 25 25.5H19.4125C19.4703 25.3396 19.4999 25.1705 19.5 25V14.2425C20.2543 13.9751 20.9237 13.5114 21.4391 12.8992C21.9545 12.2869 22.2974 11.5483 22.4322 10.7594C22.5671 9.97055 22.4892 9.15998 22.2064 8.41127C21.9237 7.66256 21.4464 7.0028 20.8237 6.5H25C25.9282 6.5 26.8185 6.86875 27.4749 7.52513C28.1312 8.1815 28.5 9.07174 28.5 10C28.5 10.9283 28.1312 11.8185 27.4749 12.4749C26.8185 13.1313 25.9282 13.5 25 13.5Z" fill="#2563EB"/>
</svg>
