<svg width="32" height="32" viewBox="0 0 32 32" fill="none" xmlns="http://www.w3.org/2000/svg">
<path d="M21.375 6.2963C19.8576 4.54369 18.15 2.96524 16.2838 1.59005C16.1998 1.53143 16.0999 1.5 15.9975 1.5C15.8951 1.5 15.7952 1.53143 15.7113 1.59005C13.8467 2.96553 12.1408 4.54397 10.625 6.2963C7.27125 10.1513 5.5 14.1975 5.5 18C5.5 20.7848 6.60625 23.4555 8.57538 25.4247C10.5445 27.3938 13.2152 28.5 16 28.5C18.7848 28.5 21.4555 27.3938 23.4246 25.4247C25.3938 23.4555 26.5 20.7848 26.5 18C26.5 14.1975 24.7288 10.1513 21.375 6.2963ZM16 27.5C13.4813 27.4974 11.0664 26.4957 9.28541 24.7146C7.50439 22.9336 6.50265 20.5188 6.5 18C6.5 13.5125 9.14375 9.52505 11.3625 6.9713C12.7591 5.37108 14.3127 3.91504 16 2.62505C17.6876 3.91661 19.2412 5.37434 20.6375 6.9763C22.8563 9.52505 25.5 13.5125 25.5 18C25.4974 20.5188 24.4956 22.9336 22.7146 24.7146C20.9336 26.4957 18.5187 27.4974 16 27.5Z" fill="#2563EB"/>
</svg>
