<svg width="33" height="32" viewBox="0 0 33 32" fill="none" xmlns="http://www.w3.org/2000/svg">
<path d="M31.9688 15.5H30.4219V11C30.4219 10.6022 30.2589 10.2206 29.9688 9.93934C29.6787 9.65804 29.2853 9.5 28.875 9.5H26.2969V8C26.2969 7.60218 26.1339 7.22064 25.8438 6.93934C25.5537 6.65804 25.1603 6.5 24.75 6.5H21.6562C21.246 6.5 20.8525 6.65804 20.5624 6.93934C20.2723 7.22064 20.1094 7.60218 20.1094 8V15.5H12.8906V8C12.8906 7.60218 12.7277 7.22064 12.4376 6.93934C12.1475 6.65804 11.754 6.5 11.3438 6.5H8.25C7.83974 6.5 7.44629 6.65804 7.15619 6.93934C6.8661 7.22064 6.70312 7.60218 6.70312 8V9.5H4.125C3.71474 9.5 3.32129 9.65804 3.03119 9.93934C2.7411 10.2206 2.57812 10.6022 2.57812 11V15.5H1.03125C0.894498 15.5 0.763346 15.5527 0.666648 15.6464C0.56995 15.7402 0.515625 15.8674 0.515625 16C0.515625 16.1326 0.56995 16.2598 0.666648 16.3536C0.763346 16.4473 0.894498 16.5 1.03125 16.5H2.57812V21C2.57812 21.3978 2.7411 21.7794 3.03119 22.0607C3.32129 22.342 3.71474 22.5 4.125 22.5H6.70312V24C6.70312 24.3978 6.8661 24.7794 7.15619 25.0607C7.44629 25.342 7.83974 25.5 8.25 25.5H11.3438C11.754 25.5 12.1475 25.342 12.4376 25.0607C12.7277 24.7794 12.8906 24.3978 12.8906 24V16.5H20.1094V24C20.1094 24.3978 20.2723 24.7794 20.5624 25.0607C20.8525 25.342 21.246 25.5 21.6562 25.5H24.75C25.1603 25.5 25.5537 25.342 25.8438 25.0607C26.1339 24.7794 26.2969 24.3978 26.2969 24V22.5H28.875C29.2853 22.5 29.6787 22.342 29.9688 22.0607C30.2589 21.7794 30.4219 21.3978 30.4219 21V16.5H31.9688C32.1055 16.5 32.2367 16.4473 32.3334 16.3536C32.4301 16.2598 32.4844 16.1326 32.4844 16C32.4844 15.8674 32.4301 15.7402 32.3334 15.6464C32.2367 15.5527 32.1055 15.5 31.9688 15.5ZM4.125 21.5C3.98825 21.5 3.8571 21.4473 3.7604 21.3536C3.6637 21.2598 3.60938 21.1326 3.60938 21V11C3.60938 10.8674 3.6637 10.7402 3.7604 10.6464C3.8571 10.5527 3.98825 10.5 4.125 10.5H6.70312V21.5H4.125ZM11.8594 24C11.8594 24.1326 11.8051 24.2598 11.7084 24.3536C11.6117 24.4473 11.4805 24.5 11.3438 24.5H8.25C8.11325 24.5 7.9821 24.4473 7.8854 24.3536C7.7887 24.2598 7.73438 24.1326 7.73438 24V8C7.73438 7.86739 7.7887 7.74021 7.8854 7.64645C7.9821 7.55268 8.11325 7.5 8.25 7.5H11.3438C11.4805 7.5 11.6117 7.55268 11.7084 7.64645C11.8051 7.74021 11.8594 7.86739 11.8594 8V24ZM25.2656 24C25.2656 24.1326 25.2113 24.2598 25.1146 24.3536C25.0179 24.4473 24.8868 24.5 24.75 24.5H21.6562C21.5195 24.5 21.3883 24.4473 21.2916 24.3536C21.1949 24.2598 21.1406 24.1326 21.1406 24V8C21.1406 7.86739 21.1949 7.74021 21.2916 7.64645C21.3883 7.55268 21.5195 7.5 21.6562 7.5H24.75C24.8868 7.5 25.0179 7.55268 25.1146 7.64645C25.2113 7.74021 25.2656 7.86739 25.2656 8V24ZM29.3906 21C29.3906 21.1326 29.3363 21.2598 29.2396 21.3536C29.1429 21.4473 29.0118 21.5 28.875 21.5H26.2969V10.5H28.875C29.0118 10.5 29.1429 10.5527 29.2396 10.6464C29.3363 10.7402 29.3906 10.8674 29.3906 11V21Z" fill="#2563EB"/>
</svg>
