<svg width="32" height="32" viewBox="0 0 32 32" fill="none" xmlns="http://www.w3.org/2000/svg">
<path d="M20.5 9.50626C20.5 9.70404 20.4414 9.89738 20.3315 10.0618C20.2216 10.2263 20.0654 10.3544 19.8827 10.4301C19.7 10.5058 19.4989 10.5256 19.3049 10.487C19.1109 10.4485 18.9328 10.3532 18.7929 10.2134C18.6531 10.0735 18.5578 9.89533 18.5192 9.70135C18.4806 9.50736 18.5005 9.3063 18.5761 9.12357C18.6518 8.94085 18.78 8.78467 18.9444 8.67479C19.1089 8.5649 19.3022 8.50626 19.5 8.50626C19.7652 8.50626 20.0196 8.61161 20.2071 8.79915C20.3947 8.98668 20.5 9.24104 20.5 9.50626ZM26.6538 17.7163C24.2788 21.985 19.8088 24.26 13.35 24.4825L10.475 31.1975C10.4362 31.2878 10.3716 31.3647 10.2894 31.4185C10.2071 31.4723 10.1108 31.5006 10.0125 31.5H9.98002C9.87709 31.4934 9.77872 31.4552 9.69839 31.3905C9.61805 31.3258 9.55968 31.2379 9.53127 31.1388L7.60502 24.3963L0.862518 22.4663C0.763396 22.4377 0.675526 22.3792 0.610952 22.2988C0.546379 22.2183 0.508263 22.1199 0.501828 22.017C0.495394 21.914 0.520957 21.8116 0.575012 21.7237C0.629068 21.6359 0.708971 21.5669 0.803768 21.5263L7.51877 18.6513C7.75002 12.2 10.02 7.72625 14.2875 5.35625C19.975 2.1975 27.26 3.98126 27.6325 4.19751C27.7055 4.24096 27.7666 4.30197 27.81 4.37501C27.9188 4.56 28.4 6.4925 28.4875 8.99375C28.5675 11.3213 28.315 14.7238 26.6538 17.7163ZM21.5963 21.4375C20.1769 21.2213 18.8822 20.5032 17.9471 19.4138C17.012 18.3243 16.4986 16.9357 16.5 15.5C15.0664 15.4995 13.6803 14.9863 12.592 14.053C11.5038 13.1198 10.7853 11.828 10.5663 10.4113C9.28252 12.6613 8.59252 15.53 8.50877 19C8.50649 19.0957 8.47677 19.1888 8.42315 19.2681C8.36952 19.3474 8.29425 19.4097 8.20627 19.4475L2.49002 21.8925L8.14752 23.5175C8.22895 23.5409 8.3031 23.5846 8.36301 23.6445C8.42292 23.7044 8.46662 23.7786 8.49002 23.86L10.1063 29.5163L12.5563 23.8013C12.5939 23.713 12.6561 23.6375 12.7354 23.5837C12.8147 23.5298 12.9079 23.4999 13.0038 23.4975C16.4763 23.41 19.3475 22.7213 21.5963 21.4375ZM27.5 9.65626C27.4953 8.09999 27.3193 6.54898 26.975 5.03126C25.4573 4.68689 23.9063 4.51082 22.35 4.50625C19.9988 4.49125 16.6088 4.88126 13.825 6.81751C12.957 7.42049 12.1835 8.14931 11.53 8.98C11.4526 9.71674 11.5398 10.4615 11.7854 11.1604C12.0311 11.8592 12.4289 12.4948 12.9502 13.0211C13.4715 13.5475 14.1032 13.9514 14.7997 14.2037C15.4962 14.456 16.2401 14.5504 16.9775 14.48C17.0508 14.473 17.1248 14.4824 17.194 14.5073C17.2633 14.5322 17.3262 14.5722 17.3783 14.6242C17.4304 14.6763 17.4703 14.7392 17.4952 14.8085C17.5202 14.8778 17.5295 14.9517 17.5225 15.025C17.4524 15.7629 17.5472 16.5072 17.8001 17.204C18.053 17.9008 18.4576 18.5327 18.9848 19.0538C19.5119 19.575 20.1483 19.9724 20.848 20.2173C21.5476 20.4623 22.2929 20.5486 23.03 20.47C23.8585 19.8172 24.5856 19.045 25.1875 18.1788C26.25 16.645 27.5225 13.9188 27.5 9.65626Z" fill="#2563EB"/>
</svg>
