<svg width="32" height="37" viewBox="0 0 32 37" fill="none" xmlns="http://www.w3.org/2000/svg">
<path d="M21.375 8.79755C19.8578 7.04437 18.1502 5.46549 16.2838 4.09005C16.1998 4.03143 16.0999 4 15.9975 4C15.8951 4 15.7952 4.03143 15.7113 4.09005C13.8465 5.46578 12.1406 7.04465 10.625 8.79755C7.27125 12.6513 5.5 16.6975 5.5 20.5C5.5 23.2848 6.60625 25.9555 8.57538 27.9247C10.5445 29.8938 13.2152 31 16 31C18.7848 31 21.4555 29.8938 23.4246 27.9247C25.3938 25.9555 26.5 23.2848 26.5 20.5C26.5 16.6975 24.7288 12.6513 21.375 8.79755ZM16 30C13.4813 29.9974 11.0664 28.9957 9.28541 27.2146C7.50439 25.4336 6.50265 23.0188 6.5 20.5C6.5 16.0125 9.14375 12.025 11.3625 9.47005C12.7597 7.87085 14.3133 6.41528 16 5.12505C17.687 6.41686 19.2405 7.87411 20.6375 9.47505C22.8563 12.025 25.5 16.0125 25.5 20.5C25.4974 23.0188 24.4956 25.4336 22.7146 27.2146C20.9336 28.9957 18.5187 29.9974 16 30ZM22.4925 21.5838C22.252 22.9304 21.6044 24.1708 20.6371 25.1379C19.6697 26.1051 18.4291 26.7523 17.0825 26.9925C17.0553 26.9975 17.0277 27 17 27C16.8752 26.9991 16.7553 26.9516 16.6637 26.8667C16.5722 26.7819 16.5158 26.6659 16.5054 26.5415C16.4951 26.4171 16.5316 26.2934 16.6079 26.1946C16.6841 26.0958 16.7946 26.0291 16.9175 26.0075C19.19 25.625 21.1213 23.6938 21.5075 21.4163C21.5344 21.2901 21.609 21.1792 21.7158 21.1068C21.8225 21.0343 21.9532 21.0059 22.0803 21.0276C22.2075 21.0492 22.3214 21.1191 22.3983 21.2228C22.4751 21.3265 22.5088 21.4558 22.4925 21.5838Z" fill="#2563EB"/>
</svg>
